<?xml version="1.0" encoding="UTF-8" standalone="no"?>

<svg
   width="110.69899mm"
   height="13.9305mm"
   viewBox="0 0 110.69899 13.9305"
   version="1.1"
   id="svg1"
   xml:space="preserve"
   xmlns="http://www.w3.org/2000/svg"
   xmlns:svg="http://www.w3.org/2000/svg"><defs
     id="defs1" /><g
     id="layer1"><path
       fill="#ffffff"
       style="fill:#ffffff"
       d="m 4.5832926,10.83735 c 0,-0.9708503 0.383823,-7.74419 0.654757,-7.99255 0.158044,-0.11288 0.745067,-0.2032 1.399823,-0.22577 0.316089,-0.0226 0.609601,-0.0226 0.903112,-0.0226 C 7.6764514,2.00941 7.7893404,1.60301 7.9248074,1.17403 5.7573386,1.42238 4.2220486,1.53527 2.370669,1.53527 c -0.293511,0 -0.609601,0 -0.9482681,-0.0226 -0.361245,0 -0.72248895,-0.0226 -1.1514679,-0.0452 C 0.225783,2.00934 0.135467,2.68667 0,3.45432 0.85795595,3.00276 1.6707569,2.82214 2.5512909,2.73183 c -0.02258,1.17404 -0.6096,8.5344 -1.151468,10.8825 1.128891,-0.27094 2.7093367,-0.45156 3.4092477,-0.45156 C 4.6284486,12.2145 4.5832926,11.4017 4.5832926,10.85983 Z M 10.905092,6.63788 C 11.085714,5.17032 11.53727,0.67734 11.650159,0 11.017981,0.2032 8.8730895,0.42898 8.1280225,0.42898 c 0.654756,1.6256 0.677334,1.80622 0.677334,2.70934 0,2.41582 -0.4967121,8.08285 -0.8579561,10.54383 0.5418671,-0.24836 1.9416909,-0.79022 2.7093356,-0.99342 -0.02258,-0.24836 -0.02258,-0.51929 -0.02258,-0.81281 0,-1.08373 0.135467,-2.34809 0.248356,-2.88995 0.270933,-1.17405 2.032002,-3.90596 2.370669,-3.90596 0.09031,0 0.135467,0.33866 0.135467,0.85795 0,1.98685 -0.496712,6.8185 -0.654757,7.74419 0.903112,-0.36125 2.415825,-0.72249 3.138315,-0.85796 -0.225778,-0.67733 -0.428979,-1.39982 -0.428979,-2.19004 0,-1.26436 0.541868,-5.66703 0.541868,-6.97654 0,-0.4064 -0.02258,-0.4064 -0.496712,-0.4064 -0.699912,0 -1.85138,0.22577 -2.144891,0.33866 -0.496712,0.22578 -1.896535,2.21263 -2.348091,3.04801 z m 6.14117,2.73191 c 0,1.26436 0.383822,3.99627 0.699911,4.17689 0.180623,0.0903 0.496712,0.13547 0.857957,0.13547 1.286934,0 3.341514,-0.51929 3.883382,-0.94827 0.496711,-0.38382 1.174045,-2.57387 1.33209,-3.36409 -0.541867,0 -1.535291,-0.0226 -2.144891,-0.0452 -0.112889,0.90312 -0.903112,3.25121 -1.083735,3.34152 -0.06773,0.0451 -0.248356,0.0677 -0.4064,0.0677 -0.09031,0 -0.180623,-0.0226 -0.248356,-0.0452 -0.112889,-0.0452 -0.293511,-1.33209 -0.293511,-2.7093403 0,-0.3838197 0.02258,-0.7902197 0.04515,-1.1966197 1.151468,-0.27094 3.228626,-0.79023 3.725337,-1.08374 0.158045,-0.0677 0.225778,-1.17404 0.225778,-2.16747 0,-0.88053 -0.06773,-1.80622 -0.158044,-2.05458 -0.02258,-0.0677 -0.293512,-0.11289 -0.677334,-0.11289 -1.12889,0 -3.567293,0.33867 -4.086582,0.56445 -0.474134,0.22578 -1.670757,4.24463 -1.670757,5.41867 z m 2.686758,-1.4224 c 0.09031,-0.69991 0.677334,-3.07058 0.970845,-3.63503 0.06773,-0.11289 0.225778,-0.11289 0.361245,-0.11289 0.06773,0 0.112889,0 0.158045,0.0452 0.112889,0.11289 0.158044,1.016 0.158044,1.71591 0,0.63218 -0.02258,1.26436 -0.09031,1.44498 -0.451556,0.2032 -1.106312,0.42898 -1.557868,0.54187 z M 30.299464,2.8448 c 0,0.13547 0,0.29352 -0.02258,0.42898 -0.880534,2.84481 -2.438403,7.36037 -3.747915,10.40837 0.948268,-0.2032 1.941691,-0.33867 2.641603,-0.38382 0.180622,-2.05458 0.496711,-3.27378 0.699911,-3.86081 0.04516,-0.11289 1.174046,-0.29351 2.280358,-0.47413 0.135467,1.49013 0.225778,2.98027 0.225778,4.78649 0.993424,-0.31609 2.370669,-0.65475 3.138315,-0.76764 -0.632179,-2.07716 -1.467557,-8.78277 -1.422402,-11.78561 -1.354668,0.15804 -2.867381,0.27093 -3.951115,0.29351 0.09031,0.47413 0.158045,0.90311 0.158045,1.33209 z m 1.286934,0.24836 c 0.158045,1.24178 0.361245,3.048 0.496712,4.74134 -0.857957,0.0903 -1.33209,0.11289 -1.896535,0.15804 0.293511,-1.24178 1.12889,-4.15431 1.33209,-4.89938 z m 11.785628,1.2192 c 0,-0.97084 -0.112889,-0.97084 -0.835378,-0.97084 -1.12889,0 -3.341515,0.36124 -4.199471,0.8128 -0.51929,0.24835 -1.761069,3.83822 -1.761069,4.80907 0,0.9482697 0.587023,4.42525 1.174046,4.6736 0.09031,0.0226 0.2032,0.0452 0.316089,0.0452 0.993423,0 3.90596,-0.58702 4.267204,-1.15147 0.293512,-0.42898 0.767646,-2.77707 0.857957,-3.68018 -0.677334,0.0903 -1.399824,0.13547 -1.896535,0.15804 -0.383823,1.64818 -0.790223,2.98027 -1.083735,3.43183 -0.06773,0.11289 -0.383822,0.15804 -0.541867,0.15804 -0.04516,0 -0.112889,-0.0226 -0.180622,-0.0452 C 39.3306,12.44036 39.217711,10.49867 39.195133,9.23431 v -0.8128 c 0.06773,-0.88053 0.970846,-3.8608 1.151468,-3.99627 0.06773,-0.11289 0.361245,-0.13547 0.519289,-0.13547 0.293512,0 0.31609,0.0677 0.361245,1.016 0,0.40641 0,0.94827 -0.02258,1.49014 0.587023,-0.2032 1.332091,-0.42898 2.032003,-0.63218 0.06773,-0.63218 0.135466,-1.30951 0.135466,-1.8288 z m 7.495851,0 c 0,-0.97084 -0.11289,-0.97084 -0.83538,-0.97084 -1.12889,0 -3.341514,0.36124 -4.199471,0.8128 -0.519289,0.24835 -1.761068,3.83822 -1.761068,4.80907 0,0.9482697 0.587023,4.42525 1.174046,4.6736 0.09031,0.0226 0.2032,0.0452 0.316089,0.0452 0.993423,0 3.905959,-0.58702 4.267204,-1.15147 0.29351,-0.42898 0.76765,-2.77707 0.85796,-3.68018 -0.67734,0.0903 -1.399827,0.13547 -1.896539,0.15804 -0.383822,1.64818 -0.790223,2.98027 -1.083734,3.43183 -0.06773,0.11289 -0.383823,0.15804 -0.541867,0.15804 -0.04516,0 -0.112889,-0.0226 -0.180623,-0.0452 -0.158044,-0.11289 -0.270933,-2.05458 -0.293511,-3.31894 v -0.8128 c 0.06773,-0.88053 0.970845,-3.8608 1.151468,-3.99627 0.06773,-0.11289 0.361244,-0.13547 0.519289,-0.13547 0.293511,0 0.316089,0.0677 0.361245,1.016 0,0.40641 0,0.94827 -0.02258,1.49014 0.587023,-0.2032 1.33209,-0.42898 2.032,-0.63218 0.0677,-0.63218 0.13547,-1.30951 0.13547,-1.8288 z m 0.67735,5.05743 c 0,1.10631 0.54187,3.61245 0.74507,3.79307 0.27093,0.18062 1.80622,0.49671 2.30293,0.49671 0.58702,-0.0226 1.94169,-0.47413 2.32552,-0.72249 0.38382,-0.27093 1.76106,-3.47698 1.8288,-4.08658 0.0226,-0.15804 0.0226,-0.45156 0.0226,-0.83538 0,-1.4224 -0.15805,-4.33494 -0.56445,-4.53814 -0.18062,-0.0903 -0.47413,-0.11289 -0.85796,-0.11289 -1.2192,0 -3.2512,0.42898 -3.90596,0.76765 -0.58702,0.67733 -1.89653,4.40267 -1.89653,5.21547 z m 4.69618,-1.016 c 0,1.19662 -1.17404,4.38009 -1.35467,4.40267 h -0.15804 c -0.11289,0 -0.27093,0 -0.33867,-0.0226 -0.15804,-0.0677 -0.33867,-2.8222203 -0.29351,-3.6576 0.0226,-0.45156 0.97085,-3.99627 1.24178,-4.51556 0.0677,-0.11289 0.18062,-0.11289 0.36124,-0.11289 0.11289,0 0.2032,0.0226 0.22578,0.0451 0.13547,0.11289 0.31609,2.86738 0.31609,3.83823 z m 6.38951,-1.73849 c 0.0226,-0.65476 0.0452,-1.08374 0.0226,-1.35467 0,-0.54187 -0.0451,-1.37725 -0.18062,-1.91911 -0.92569,0.15804 -2.32551,0.33866 -3.048,0.33866 0.45155,0.65476 0.99342,1.89654 1.08373,2.50614 0.0226,0.11289 0.0452,0.29351 0.0452,0.54187 0,1.46755 -0.29352,5.14773 -0.6096,6.93138 0.79022,-0.42898 2.00942,-0.76764 2.77707,-0.92569 -0.0226,-0.36124 -0.0452,-0.76764 -0.0452,-1.08373 0,-1.016 0.11289,-2.30294 0.18062,-2.75449 0.11289,-0.92569 0.97085,-3.31894 1.28694,-3.34152 0.29351,0 0.79022,0.15805 1.26435,0.42898 0.2032,-0.8128 0.47414,-1.78365 0.79023,-2.57387 -0.24836,-0.0226 -0.51929,-0.0452 -0.79023,-0.0452 -0.51929,0 -1.06115,0.0452 -1.39982,0.13547 -0.4064,0.56445 -0.79022,1.6256 -1.28693,3.11574 z m 8.33121,3.4544 c -0.18062,1.30951 -0.27093,2.25778 -0.29351,3.68018 0.63218,-0.31609 1.89654,-0.8128 2.64161,-0.99342 -0.31609,-1.85138 -0.38383,-2.66418 -0.38383,-3.22863 0,-0.92569 0.49671,-7.02169 1.03858,-9.36978 -0.56444,0.15804 -2.61902,0.36124 -3.49956,0.38382 0.42898,0.65476 0.63218,1.2192 0.63218,1.85138 0,0.29351 -0.0226,0.72249 -0.0677,1.12889 -1.30951,0.0452 -2.86738,0.54187 -3.43183,0.92569 -0.45155,0.31609 -1.91911,3.74791 -1.91911,4.83165 0,0.92569 0.49671,3.81565 0.79022,4.10916 0.2032,0.18062 1.35467,0.27093 1.98685,0.27093 h 0.4064 c 0.0677,-0.0226 1.30951,-1.30951 2.00942,-3.58987 z m -2.75449,-0.79022 c 0,-1.24178 0.94827,-3.9737 1.26436,-4.47041 0.0677,-0.0903 0.2032,-0.13546 0.4064,-0.13546 0.2032,0 0.63218,0.0452 1.03858,0.24835 -0.2032,1.6256 -0.4064,3.27378 -0.63218,4.06401 -0.38382,1.37724 -1.28693,3.38667 -1.67076,3.38667 -0.24835,0 -0.4064,-1.85138 -0.4064,-3.07058 z m 9.14402,0.8128 c 0,-1.71591 0.67733,-8.55699 1.03857,-10.04712 -0.65475,0.2032 -2.68675,0.42898 -3.56729,0.42898 0.36125,0.72249 0.72249,1.55786 0.72249,2.12231 0,1.53529 -0.47413,8.46667 -0.88053,11.04054 0.72249,-0.24835 2.16747,-0.58702 2.93511,-0.72249 -0.22578,-1.03858 -0.24835,-2.14489 -0.24835,-2.79964 z m 6.23148,0.24835 c -0.0452,0.36125 -0.15805,1.39983 -0.15805,2.37067 0,0.38383 0.0226,0.79023 0.0903,1.10632 0.38383,-0.24836 2.07716,-0.90312 2.5513,-0.97085 -0.31609,-1.03858 -0.4064,-1.85138 -0.4064,-2.77707 0,-0.36124 0,-0.76764 0.0452,-1.37724 0.11289,-1.49014 0.45156,-4.44783 0.45156,-4.83165 0,-0.31609 -0.47414,-0.63218 -0.83538,-0.63218 -0.63218,0 -4.51556,0.54186 -4.80907,0.90311 -0.38383,0.47413 -0.83538,1.8288 -0.88054,2.30294 0.47414,-0.0677 1.60303,-0.18063 2.05458,-0.18063 0.22578,-0.76764 0.76765,-1.71591 0.97085,-1.87395 0.2032,-0.18063 0.38382,-0.22578 0.58702,-0.22578 0.22578,0 0.31609,0.51929 0.31609,1.30951 0,0.42898 -0.0226,0.94827 -0.11289,1.53529 -1.35467,0.24836 -3.74791,1.08373 -4.08658,1.64818 -0.31609,0.54187 -0.42898,2.30294 -0.42898,3.47698 0,0.42898 0.0226,0.79022 0.0452,0.97085 0.0677,0.4064 1.96427,0.56444 2.39324,0.56444 0.47414,0 1.53529,-1.37724 2.12232,-3.31894 z m -0.31609,-2.12231 c -0.27093,1.46756 -1.49014,4.22205 -1.94169,4.22205 -0.0903,0 -0.13547,-0.36124 -0.13547,-0.88053 0,-1.10632 0.18062,-2.86738 0.42898,-3.04801 0.22578,-0.2032 1.016,-0.29351 1.64818,-0.29351 z m 7.20232,-1.85138 c 0.13547,-1.016 0.2032,-1.98684 0.24836,-3.02542 -0.83538,0.2032 -2.57387,0.47413 -3.5673,0.56444 1.03858,1.37725 1.03858,1.6256 1.03858,2.28036 0,1.67076 -0.36124,5.12516 -0.74507,7.51841 0.76765,-0.33867 1.91912,-0.67734 2.64161,-0.8128 -0.0677,-1.01601 0.22578,-3.52214 0.38382,-4.19947 0.22578,-1.03858 1.80622,-3.65761 2.19005,-3.65761 0.0677,0 0.11289,0.2032 0.11289,0.54187 0,1.15147 -0.51929,5.66703 -0.90312,8.19574 1.06116,-0.31609 2.415834,-0.65476 3.544724,-0.85796 -0.49671,-0.65475 -0.72249,-1.51271 -0.72249,-1.89653 0,-1.49014 0.74507,-6.09601 0.74507,-7.2249 0,-0.42898 -0.0677,-0.45155 -0.58703,-0.45155 -0.67733,0 -1.648184,0.13546 -1.964274,0.2032 -0.51928,0.13546 -1.76106,1.69333 -2.32551,2.82222 z m 11.288893,3.70276 c -0.18062,1.30951 -0.27093,2.25778 -0.29351,3.68018 0.63218,-0.31609 1.89654,-0.8128 2.6416,-0.99342 -0.31609,-1.85138 -0.38382,-2.66418 -0.38382,-3.22863 0,-0.92569 0.49671,-7.02169 1.03858,-9.36978 -0.56445,0.15804 -2.61903,0.36124 -3.49956,0.38382 0.42898,0.65476 0.63218,1.2192 0.63218,1.85138 0,0.29351 -0.0226,0.72249 -0.0677,1.12889 -1.30951,0.0452 -2.867377,0.54187 -3.431817,0.92569 -0.45156,0.31609 -1.919112,3.74791 -1.919112,4.83165 0,0.92569 0.49671,3.81565 0.79022,4.10916 0.2032,0.18062 1.354672,0.27093 1.986852,0.27093 h 0.4064 c 0.0677,-0.0226 1.309507,-1.30951 2.009417,-3.58987 z M 99.003773,9.27948 c 0,-1.24178 0.94827,-3.9737 1.264357,-4.47041 0.0677,-0.0903 0.2032,-0.13546 0.4064,-0.13546 0.2032,0 0.63218,0.0452 1.03858,0.24835 -0.2032,1.6256 -0.4064,3.27378 -0.63218,4.06401 -0.38383,1.37724 -1.286937,3.38667 -1.670757,3.38667 -0.24836,0 -0.4064,-1.85138 -0.4064,-3.07058 z M 110.0669,3.25121 c -1.08374,0 -2.12232,0.15804 -2.64161,0.36124 -0.69991,0.51929 -1.53529,1.64818 -1.94169,2.46098 -0.0452,0.11289 -0.0452,0.22578 -0.0452,0.31609 0,0.58702 0.33866,1.49013 0.72249,2.34809 0.36124,0.8128 1.10631,2.34809 1.46755,2.93511 0,0.0677 0,0.11289 -0.0226,0.13547 -0.31609,0.13547 -0.92569,0.2032 -1.21921,0.2032 -0.24835,0 -0.76764,-0.0452 -1.28693,-0.18062 -0.11289,0.67733 -0.27093,1.4224 -0.42898,2.09973 1.67076,-0.18062 3.74792,-0.88053 4.74134,-1.64817 0.18062,-0.2032 0.56444,-0.94827 0.56444,-1.21921 -0.0677,-0.22577 -0.99342,-2.28035 -1.30951,-3.048 -0.47413,-1.10631 -0.79022,-2.46098 -0.79022,-2.98027 0,-0.33867 0.27093,-0.49671 0.33867,-0.49671 0.31609,0 0.92569,0.0903 1.98684,0.83538 0.13547,-0.69991 0.27094,-1.44498 0.49671,-2.09974 -0.22577,-0.0226 -0.45155,-0.0226 -0.6096,-0.0226 z"
       id="text1"
       aria-label="The Accordlands"/></g></svg>
