<?xml version="1.0" encoding="UTF-8" standalone="no"?>
<svg
   width="237.54886mm"
   height="30.79426mm"
   viewBox="0 0 237.54886 30.79426"
   version="1.1"
   id="svg1"
   xml:space="preserve"
   xmlns="http://www.w3.org/2000/svg"
   xmlns:svg="http://www.w3.org/2000/svg"><defs
     id="defs1" /><g
     id="layer1"
     transform="translate(-28.636884,-84.270273)"><g
       id="g3"
       transform="translate(103.32024,-14.312788)"
       style="fill:#ffffff"><path
         fill="#ffffff"
         d="m 886.62,53.17 19.52,3.82 4.57,0.36 a 1.21,1.21 0 0 1 1.1,1.03 l 1.82,12.42 1.05,6.53 a 0.54,0.54 0 0 1 -0.49,0.62 l -1.85,0.18 q -0.69,0.06 -1.01,-0.57 l -2.43,-4.82 q -8.99,-13.96 -26.54,-10.79 -11.87,4.05 -8.85,16.72 1.26,2.81 3.65,4.65 l 7.27,5.75 5.09,3.14 14.97,9.02 c 11.53,7.84 18.05,20.6 14.53,34.62 q -4.25,10.5 -14.62,16.31 -9.14,4.77 -19.74,5.16 -14.49,0.26 -29.46,-5.82 l -4.04,-24.53 q -0.14,-0.79 0.66,-0.94 1.06,-0.18 1.62,0.03 1.84,-0.33 2.14,0.81 1.32,5.1 3.52,9.54 3.31,6.71 9.27,9.93 c 8.51,3.99 20.96,3.81 27.7,-3.8 q 1.02,-1.09 1.44,-2.44 c 4.61,-11.53 -3.12,-19.94 -12.29,-25.63 -7.76,-4.82 -15.46,-8.54 -22.43,-15.01 -11.37,-10.55 -14.18,-28.35 -1.62,-39.21 6.75,-5.83 16.5,-7.51 25.45,-7.08 z"
         id="path627"
         transform="matrix(0.26458333,0,0,0.26458333,-80.544448,86.678928)"
         style="fill:#ffffff" /><path
         fill="#ffffff"
         d="m 456.73,93.39 2.82,0.18 31.77,0.3 c 17.34,-0.34 32.48,8.8 34.38,27.02 q 0.54,6.66 -1.75,12.89 0.01,0.11 0.02,0.21 l -2.2,5.08 q -9.71,15.4 -27.78,15.88 -5.82,0.15 -27.06,0.08 c -3.07,-0.02 -6.42,0.42 -9.67,0.52 q -1.06,0.03 -1.05,-1.03 l 0.02,-0.98 q 0.01,-0.95 0.95,-1.07 l 2.53,-0.33 q 0.86,0 1.44,-0.36 4.22,-0.87 4.23,-6.28 0.03,-19.09 -0.16,-38.66 0.61,-4.76 -0.83,-7.44 c -1.32,-2.46 -5.63,-2.64 -8.08,-3.37 q -0.53,-2.34 0.42,-2.64 z m 53.08,35.78 q 2.68,-18.99 -12.59,-26.02 c -5.08,-1.74 -10.99,-1.45 -16.19,-1.03 a 0.56,0.56 0 0 0 -0.52,0.55 q -0.4,16.71 -0.05,33.33 c 0.07,3.3 -0.05,8.51 2.99,9.61 12.35,4.46 23.86,-3.89 26.36,-16.44 z"
         id="path682"
         transform="matrix(0.26458333,0,0,0.26458333,-80.544448,86.678929)"
         style="fill:#ffffff" /><path
         fill="#ffffff"
         d="m 759.56,92.65 q 0.77,1.01 0.37,2.39 -0.14,0.49 -0.64,0.56 c -4.25,0.62 -7.89,2.04 -7.53,7.15 q 1.49,21.64 3.31,43.25 c 0.46,5.39 4.69,5.33 8.8,5.5 q 0.58,0.03 0.71,0.6 l 0.48,2.09 q -0.15,0.04 -0.3,0.07 l -3.39,0.26 c -7.96,-0.43 -16.37,0.76 -25.73,1.91 q -1.58,0.57 -3.14,0.42 -0.54,-0.05 -0.72,-0.56 -0.48,-1.27 0.69,-2.4 l 3.66,-1.08 q 0.91,-0.18 1.36,-0.75 c 2.72,-0.78 2.71,-4.06 2.5,-6.56 q -1.22,-14.4 -2.15,-28.82 c -0.21,-3.13 -0.78,-6.82 -1.06,-10.3 a 0.83,0.83 0 0 0 -0.98,-0.75 l -21.5,4.03 a 1.13,1.13 0 0 0 -0.92,1.1 q -0.26,16.65 -0.2,33.49 c 0.01,2.47 0,5.03 2.11,6.58 q 1.48,1.08 2.94,1.11 l 3.26,0.48 q 0.94,0.3 0.87,2.94 l -2.07,0.2 -0.49,-0.12 q -14.15,-1.19 -28.35,0.05 l -2.23,0.09 q -0.65,-2.4 0.58,-3.16 1.85,0.1 3.89,-0.63 1.07,-0.05 1.77,-0.59 2.58,-1.33 2.62,-4.7 0.3,-22.25 -0.11,-44.49 -0.06,-3.31 -2.53,-4.18 l -2.13,-0.58 q -1.36,-0.57 -2.78,-0.51 -2.01,-0.31 -1.46,-3 l 0.43,-0.32 22.22,0.54 a 1.55,1.55 0 0 1 1.51,1.52 l 0.08,4.26 q 0.01,0.67 0.67,0.55 l 25.91,-4.63 7.85,-1.3 z"
         id="path679"
         transform="matrix(0.26458333,0,0,0.26458333,-80.544448,86.678929)"
         style="fill:#ffffff" /><path
         fill="#ffffff"
         d="m 631.41,93.86 q 12.41,0.71 26.03,-0.31 1.22,-0.09 1.1,1.13 l -0.08,0.8 q -0.13,1.34 -1.46,1.37 -3.06,0.08 -5.86,1.81 -1.38,1.16 -0.9,2.63 0.88,2.71 5.1,12.15 5.99,13.39 11.83,26.85 c 1.74,4 3.87,8.22 8.8,6.03 q 0.53,-0.04 0.65,-0.15 l 2.13,-0.46 q 0.52,-0.12 0.9,0.27 0.54,0.56 0.78,1.55 0.02,1.1 -1.7,1.36 -13.49,4.53 -26.02,11.53 l -1.3,0.73 q -2.72,0.08 -1.38,-2.29 c 0.52,-0.93 1.5,-1.37 2.38,-2.1 q 1.73,-0.66 2.93,-3.62 0.05,-2.05 -0.55,-3.91 -0.5,-1.55 -2.4,-5.12 -0.24,-0.46 -0.76,-0.47 l -11.1,-0.18 -16.43,0.05 q -0.91,0 -1.39,0.78 -3.11,5.01 -2.81,9.76 2.1,2.62 4.75,3.93 1.33,0.66 0.97,2.09 l -0.13,0.55 a 0.99,0.99 0 0 1 -1.47,0.62 q -10,-5.98 -21.13,-9.42 a 1.36,1.35 -67.8 0 1 -0.8,-1.91 l 0.16,-0.31 a 1.48,1.48 0 0 1 1.67,-0.77 c 4.96,1.22 7.92,1.39 10.3,-3.84 q 12.06,-26.49 18.86,-42.7 c 1.74,-4.15 -4.43,-5.55 -7,-5.56 a 0.96,0.96 0 0 1 -0.96,-0.94 l -0.01,-1.16 q -0.01,-1.24 1.22,-1.14 z m -4.77,41.26 a 0.49,0.49 0 0 0 0.45,0.69 l 20.8,-0.13 a 0.49,0.49 0 0 0 0.45,-0.68 l -10.33,-23.48 a 0.49,0.49 0 0 0 -0.9,-0.01 z"
         id="path683"
         transform="matrix(0.26458333,0,0,0.26458333,-80.544448,86.678928)"
         style="fill:#ffffff" /><path
         fill="#ffffff"
         d="m 573.96,96.86 c -5.01,0.35 -5.82,3.3 -5.86,7.88 q -0.09,12.8 -0.05,25.51 -0.05,6.8 -0.07,13.49 -0.01,2.38 2.26,2.65 8.39,0.96 16.16,0.21 c 5.08,-0.5 7.96,-5.43 10.87,-9.01 1.27,-1.57 2.82,-2.16 4.61,-1.2 q -5.56,8.45 -7.58,17.63 -0.2,0.94 -1.17,0.94 l -49.19,0.39 q -0.51,-2.92 1.29,-3.13 2.33,0.02 3.97,-0.71 c 5.15,-1.25 3.92,-10.57 3.78,-14.5 q 0,-16.97 -0.04,-34.01 -0.02,-5.72 -5.87,-5.96 l -2.29,-0.42 a 1.11,1.1 6.1 0 1 -0.91,-1.12 l 0.03,-1.21 q 0.03,-1 1.03,-0.91 15.75,1.49 31.5,-0.09 0.61,-0.06 0.64,0.55 l 0.09,1.87 a 0.64,0.63 83.7 0 1 -0.51,0.65 z"
         id="path680"
         transform="matrix(0.26458333,0,0,0.26458333,-80.544448,86.678928)"
         style="fill:#ffffff" /><path
         fill="#ffffff"
         d="m 779.76,93.6 q 24.52,0.25 31.74,0.23 10.42,-0.04 19.16,3.6 c 20.43,10.76 21.66,37.8 3.39,51.11 -5.77,4.2 -12.96,6.37 -20.05,6.4 q -21.61,0.07 -31.24,0.29 -1.43,0.42 -3.23,0.33 l -2.24,-0.31 q -0.12,-1.34 0.27,-2.48 1.32,-0.54 2.67,-0.63 2.56,-0.11 4.31,-1.42 1.24,-0.85 1.12,-1.77 0.69,-1.46 0.72,-2.95 0.37,-21.31 0.01,-42.63 -0.12,-6.67 -6.52,-6.4 l -1.86,-0.4 q -1.15,-0.87 -0.63,-2.42 0.16,-0.49 0.65,-0.64 0.81,-0.24 1.73,0.09 z m 21.69,19.93 q -0.47,13.11 -0.17,26.22 0.08,3.26 2.45,5.77 14.98,4.72 23.79,-7.9 2.02,-3.01 2.94,-6.69 l 0.28,-1.34 q 0.54,-1.04 0.59,-2.37 c 0.77,-15.16 -6.93,-25.69 -22.83,-25.4 q -3.25,0.06 -6.46,0.09 a 0.52,0.51 -89.4 0 0 -0.51,0.51 z"
         id="path684"
         transform="matrix(0.26458333,0,0,0.26458333,-80.544448,86.678928)"
         style="fill:#ffffff" /><path
         fill="#ffffff"
         d="m 380.84,93.47 3.61,0.12 32.07,0.41 5.04,0.46 q 16.59,3.99 14.5,18.57 c -1.62,5.42 -4.37,8.47 -8.54,11.83 a 0.76,0.75 -36.8 0 0 -0.15,1.01 l 9.1,13.55 8.92,13.54 2.63,5.5 q -0.74,0.44 -1.95,0.66 l -6.57,-4.55 -6.13,-5.35 -2.3,-2.03 -4.22,-3.79 q -6.86,-6.34 -13.9,-12.42 c -2.51,-2.18 -4.72,-2.42 -7.83,-2.04 q -0.49,0.05 -0.51,0.55 -0.36,13.7 -0.06,17.61 0.24,3.07 2.84,4.24 1.54,0.68 3.08,0.62 0.14,0.26 0.61,0.25 2.03,-0.02 2.55,0.96 l 0.13,1.84 -0.32,0.31 q -0.27,0.26 -0.64,0.23 -14.38,-1.31 -30.8,-0.01 -1.45,0.11 -1.64,-0.99 -0.41,-1.41 0.86,-2.01 l 3.93,-0.76 q 2.83,-0.4 4.16,-3.24 0.82,-23.13 0.03,-46.26 c -0.29,-4.14 -3.41,-5.64 -7.3,-5.48 q -1.86,-0.38 -1.83,-2.2 z m 23.73,8.74 0.04,19.6 a 2.26,2.26 0 0 0 2.26,2.26 l 3.88,-0.01 a 11.46,10.74 89.9 0 0 10.72,-11.47 v -1.2 A 11.46,10.74 89.9 0 0 410.71,99.94 l -3.88,0.01 a 2.26,2.26 0 0 0 -2.26,2.26 z"
         id="path681"
         transform="matrix(0.26458333,0,0,0.26458333,-80.544448,86.678928)"
         style="fill:#ffffff" /><path
         id="path677"
         style="fill:#ffffff"
         d="m 326.8128,91.943302 c -5.79687,0.03755 -11.72136,1.359299 -17.77344,3.966797 -4.37999,2.73333 -7.06216,4.584111 -8.04882,5.550781 -10.31999,10.10999 -13.96047,25.36994 -7.23047,38.41992 1.94666,3.76 4.46411,6.79295 7.55078,9.09961 17.63998,13.19999 45.59853,10.66936 57.22851,-10.14062 6.87,-13.92999 3.98999,-32.31993 -10,-40.669926 -7.03124,-4.199995 -14.27344,-6.274843 -21.72656,-6.226562 z m -3.05664,9.148438 c 2.01826,-0.0889 4.11602,0.11328 6.24414,0.62891 15.03999,4.45999 21.80952,25.37892 13.51953,38.3789 -2.63999,4.26666 -6.1462,6.83761 -10.51953,7.71094 -18.50998,3.68 -29.75039,-15.25994 -26.90039,-31.16992 1.66562,-9.32749 8.91046,-15.16356 17.65625,-15.54883 z m 2.43555,13.16797 a 0.79,0.79 0 0 0 -0.54102,0.42969 c -1.92666,3.99333 -4.87823,6.93674 -8.85156,8.83007 a 1.04,1.03 44.1 0 0 0.0312,1.88086 c 3.92,1.73334 6.78938,4.53373 8.60937,8.40039 a 1,1 0 0 0 1.66016,0.22852 c 0.24667,-0.28 0.50597,-0.67302 0.7793,-1.17969 1.86666,-3.42666 4.43451,-5.87937 7.70117,-7.35937 a 1.17,1.18 45.7 0 0 0.0293,-2.13086 c -3.86667,-1.86667 -6.7093,-4.7535 -8.5293,-8.66016 a 0.79,0.79 0 0 0 -0.88867,-0.43945 z"
         transform="matrix(0.26458333,0,0,0.26458333,-80.544448,86.678928)" /><path
         fill="#ffffff"
         d="m 268.14,95.65 q 1.6,0.21 3.3,-0.19 a 0.63,0.63 0 0 1 0.78,0.58 l 0.7,14.24 a 0.87,0.86 86.6 0 1 -0.8,0.91 q -0.77,0.05 -1.48,-0.15 -0.44,-0.12 -0.61,-0.53 l -1.25,-2.87 q -2.85,-5.11 -9.01,-6.4 l -3.02,-0.87 c -36.13,-5.8 -35.33,56.35 4.3,48.21 q 3.99,-0.66 6.73,-3.77 2.17,-2.62 2.73,-5.52 l 0.7,-2.61 a 1.05,1.05 0 0 1 1.05,-0.77 l 1.17,0.05 a 0.76,0.75 -86.1 0 1 0.72,0.83 q -0.67,6.59 -1.34,13.47 -0.19,2.01 -2.11,2.76 -8.16,3.2 -16.45,3.87 -13.25,1.04 -24.15,-4.69 c -26.35,-15.24 -17.85,-51.76 9.97,-58.77 10.29,-2.63 17.99,-1.21 28.07,2.22 z"
         id="path676"
         transform="matrix(0.26458333,0,0,0.26458333,-80.544448,86.678928)"
         style="fill:#ffffff" /><path
         fill="#ffffff"
         d="m 195.89,95.83 0.77,14.6 q 0.03,0.51 -0.45,0.69 -1.72,0.65 -2.85,-1.92 -1.72,-5.03 -7.32,-7.27 -8.08,-3.24 -16.56,-1.06 c -21.06,7.47 -20.14,40.34 1.06,47.21 6.62,1.95 17.69,2.21 22.11,-4.53 q 1.83,-3.1 2.4,-6.95 0.09,-0.56 0.63,-0.7 0.65,-0.17 1.73,0.09 0.89,0.31 0.49,2.74 -0.66,5.75 -1.23,11.54 -0.19,1.91 -2.18,2.66 -5.79,2.2 -9.51,2.97 -8.51,1.72 -16.82,0.81 -8.83,-1.23 -15.77,-5.52 c -18.09,-11.54 -18.62,-33.98 -4.53,-48.97 l 0.9,-0.77 6.49,-4.61 q 10,-5.28 21.15,-4.73 2.75,0.14 9.55,1.89 4.89,1.27 9.94,1.83 z"
         id="path675"
         transform="matrix(0.26458333,0,0,0.26458333,-80.544448,86.678928)"
         style="fill:#ffffff" /><path
         fill="#ffffff"
         d="m 59.17,48.58 q 2.62,0.66 5.03,0.4 l 1.01,0.28 30.37,0.2 2.22,-0.38 3.66,-0.04 q 1.2,-0.02 1.07,1.17 l -0.09,0.8 a 1.58,1.58 0 0 1 -1.29,1.38 l -3.01,0.57 -1.15,0.32 q -2.83,0.62 -4.26,2.82 c -1.37,2.11 -0.83,6.53 0.05,8.57 q 15.27,35.34 29.97,70.92 2.23,5.39 7.72,5.12 2.71,-0.13 6.55,-1.36 a 1.06,1.06 0 0 1 1.32,0.63 l 0.56,1.44 a 0.93,0.93 0 0 1 -0.57,1.22 l -3.35,1.13 q -12.42,4.27 -24.55,9.97 l -4.68,2.19 -5.86,3.1 q -0.76,0.11 -1.1,-0.77 -0.55,-1.41 -0.11,-2.69 l 1.73,-1.01 3,-2.04 q 1.2,-0.62 2.2,-2.26 1.49,-2.72 0.62,-5.02 -2.72,-7.24 -5.94,-13.92 a 1.78,1.76 -11 0 0 -1.5,-1 q -21.98,-1.09 -44.16,-0.31 -1.51,0.05 -2.51,2.02 -2.26,4.45 -4.12,9.3 -2.12,4.65 0.05,8.08 1.41,1.66 2.62,2.28 l 2.29,1.39 1.6,0.97 a 0.89,0.88 13.5 0 1 0.44,0.71 q 0.07,1.29 -0.77,2.9 -0.16,-0.19 -0.59,-0.24 -0.36,-0.04 -0.6,-0.16 -14.26,-7.41 -29.54,-12.39 -0.57,0.02 -1.01,-0.25 a 0.71,0.7 -66.3 0 1 -0.31,-0.8 l 0.6,-2.01 q 2.38,-0.58 5.94,0.65 l 3.14,-0.05 q 1.7,-0.01 3.71,-1.29 3.77,-5.98 6.45,-12.71 3.23,-8.09 3.27,-8.19 11.94,-27.76 23.37,-55.72 1.48,-3.63 0.96,-6.38 -0.76,-4.04 -5.08,-4.81 -3.14,-0.84 -4.45,-0.64 -1.68,-0.49 -0.92,-4.09 z m 11.69,38.58 -12.74,30.31 a 0.44,0.43 -78.4 0 0 0.39,0.6 l 14.86,0.37 8.77,-0.02 11.99,-0.36 a 0.49,0.48 -11.7 0 0 0.44,-0.66 l -5,-12.34 -12.75,-30.05 a 0.39,0.39 0 0 0 -0.72,0 z"
         id="path618"
         transform="matrix(0.26458333,0,0,0.26458333,-80.544448,86.678928)"
         style="fill:#ffffff" /><path
         id="path631"
         d="m 206.04327,57.939395 c -2.84833,0.0067 -5.44631,0.05086 -7.79297,0.13086 -0.34,0.01333 -0.69388,0.18 -1.06055,0.5 0.86667,0.693332 1.79769,1.100703 2.79102,1.220703 0.57059,0.07061 0.99931,0.553964 1,1.128906 l 0.0391,17.339844 c 0,0.38 -0.17286,0.650547 -0.51953,0.810547 l -2.40039,1.128906 c -0.46,0.213333 -0.4693,0.447839 -0.0293,0.701172 0.32,0.19333 0.94558,0.232474 1.87891,0.119141 l 15.90039,-0.07031 c 0.37333,-0.0067 0.64388,-0.173333 0.81055,-0.5 0.2733,-0.546666 0.37212,-1.309063 0.29882,-2.289062 0.40667,-1.093332 0.68652,-1.926668 0.83985,-2.5 0.50667,-1.933331 0.0982,-2.15039 -1.22852,-0.650391 l -1.42968,1.599609 c -0.24643,0.28539 -0.57787,0.482557 -0.94141,0.560547 -1.96667,0.446667 -3.96667,0.550547 -6,0.310547 -0.87333,-0.1 -1.30859,-0.590704 -1.30859,-1.470703 V 71.71088 l -0.004,-1.180697 c 0.019,-0.0756 0.0405,-0.150285 0.0684,-0.212891 0.14587,-0.328138 0.48629,-0.328989 1.27016,-0.304687 0.78386,0.0243 2.01238,-0.132828 2.74156,0.07984 0.72917,0.212712 0.8758,0.321364 1.14193,0.442024 0.32504,0.14737 0.51717,0.183202 0.79679,0.01305 0.27962,-0.170154 0.69844,-0.667718 1.18456,-0.995856 0.48613,-0.328176 0.93485,-0.694926 1.27515,-0.950157 0.34032,-0.255194 0.36524,-0.487596 0.0371,-0.72461 -0.32812,-0.236976 -0.86106,-0.687076 -1.37148,-1.197501 -0.51041,-0.510387 -0.82097,-1.03558 -1.06414,-1.430805 -0.12158,-0.197593 -0.27744,-0.315119 -0.36781,-0.320599 -0.0904,-0.0055 -0.29382,0.05557 -0.38797,0.243827 -0.18831,0.376516 -0.41839,1.14211 -1.17188,1.53125 -0.75348,0.389102 -2.02996,0.401929 -2.66797,0.408203 -0.638,0.0063 -0.63693,0.0059 -0.79492,0.0059 -0.15798,0 -0.47457,6.48e-4 -0.63867,-0.236328 -0.0216,-0.03125 -0.04,-0.06717 -0.0566,-0.103516 l -0.002,-0.757813 0.13086,-4.089843 c 0.0133,-0.36 0.20054,-0.535997 0.56054,-0.529297 l 6.54883,0.160156 c 0.38,0.0067 0.68659,0.155886 0.91992,0.449219 l 1.19141,1.480469 c 0.29333,0.359999 0.52278,0.323957 0.68945,-0.109375 0.12,-0.34 0.13553,-0.720626 0.0488,-1.140625 0.0467,-1.726666 -0.19828,-3.137137 -0.73828,-4.230469 -0.42,-0.08 -0.7173,-0.0738 -0.89063,0.01953 -3.34999,-0.06667 -6.44854,-0.09651 -9.29687,-0.08984 z"
         transform="matrix(0.26458333,0,0,0.26458333,-80.544448,86.678928)"
         style="fill:#ffffff;fill-opacity:1" /><path
         fill="#ffffff"
         d="m 190.79,58.03 q 0.31,0.55 -0.32,1.15 a 1.11,1.09 -65 0 1 -0.8,0.3 q -2.2,-0.09 -2.22,2.26 -0.08,8.08 0.08,16.25 a 1.41,1.41 0 0 0 1.19,1.36 l 1.66,0.27 q 0.65,0.1 0.6,0.75 -0.01,0.27 -0.25,0.45 -0.18,0.14 -0.48,0.14 -5.83,0.05 -11.57,0.1 a 0.61,0.6 -3 0 1 -0.62,-0.55 l -0.03,-0.27 q -0.01,-0.11 0.1,-0.15 l 2.76,-1.03 q 0.65,-0.24 0.65,-0.93 l -0.02,-6.57 q 0,-0.48 -0.47,-0.52 l -8.38,-0.77 q -0.61,-0.05 -0.61,0.55 l -0.1,7.15 a 0.99,0.99 0 0 0 0.48,0.85 q 1.47,0.91 3.27,0.97 0.08,0 0.09,0.08 l 0.03,0.29 q 0.07,0.61 -0.54,0.66 l -2.59,0.23 -9.18,-0.09 q -0.55,-0.01 -0.49,-0.56 l 0.03,-0.26 q 0.08,-0.69 0.76,-0.66 2.27,0.07 2.31,-1.71 0.19,-8.17 0.02,-16.29 -0.05,-2.2 -2.53,-1.99 -0.62,0.05 -0.66,-0.57 l -0.03,-0.49 Q 162.9,58 163.33,58 l 12.12,0.04 a 0.45,0.45 0 0 1 0.45,0.5 q -0.05,0.42 -0.39,0.5 -1.51,0.36 -2.98,0.88 a 0.7,0.69 80.7 0 0 -0.47,0.66 l -0.06,5.8 a 0.45,0.45 0 0 0 0.43,0.46 l 8.37,0.43 q 0.54,0.03 0.61,-0.51 c 0.32,-2.48 1.14,-7.58 -2.84,-7.54 q -0.55,0.01 -0.55,-0.54 v -0.37 a 0.28,0.27 -90 0 1 0.27,-0.28 z"
         id="path630"
         transform="matrix(0.26458333,0,0,0.26458333,-80.544448,86.678928)"
         style="fill:#ffffff" /><path
         fill="#ffffff"
         d="m 158.89,48.26 q -1.05,3.22 -2.28,6.33 -0.07,0.18 -0.24,0.25 -0.34,0.15 -0.31,-0.21 0.21,-2.58 -2.55,-2.62 -4.47,-0.07 -7.09,0.02 -0.67,0.02 -0.67,0.69 l -0.04,25.27 a 0.94,0.94 0 0 0 0.4,0.77 q 0.68,0.5 1.38,0.53 1.38,0.2 1.54,0.32 1.91,1.41 -0.28,1.4 l -12.88,-0.05 q -0.3,-0.01 -0.5,-0.23 -0.12,-0.13 -0.23,-0.3 l 2.69,-1.31 a 2.32,2.32 0 0 0 1.29,-2.08 V 52.61 q -0.01,-0.47 -0.48,-0.51 -5.56,-0.38 -7.64,-0.1 -2.81,0.39 -3.03,2.4 l -1.33,1.27 q -0.44,0.42 -0.5,-0.18 -0.05,-0.48 0.1,-1.04 l 2.2,-7.54 q 0.66,-2.29 1.23,0.03 0.09,0.36 0.82,0.77 0.45,0.25 1.07,0.25 10.86,0 21.7,0.02 3.54,0 5.11,-2.65 0.23,-0.39 0.68,-0.33 0.54,0.09 0.45,0.5 -0.3,1.4 -0.61,2.76 z"
         id="path611"
         transform="matrix(0.26458333,0,0,0.26458333,-80.544448,86.678928)"
         style="fill:#ffffff" /></g></g></svg>
