<?xml version="1.0" encoding="UTF-8" standalone="no"?>
<svg
   width="111.97663mm"
   height="13.253971mm"
   viewBox="0 0 111.97663 13.253971"
   version="1.1"
   id="svg1"
   xmlns="http://www.w3.org/2000/svg"
   xmlns:svg="http://www.w3.org/2000/svg">
  <defs
     id="defs1" />
  <g
     id="layer1"
     transform="translate(-56.921072,-38.255029)">
    <path
	   fill="#ffffff"
       id="path3"
       d="m 67.826868,38.255029 -2.392102,0.365869 c 8.32e-4,-0.02524 0.01085,-0.04223 0.01085,-0.06821 l -0.165365,-0.173633 -5.804297,0.338997 -1.876888,-0.165364 c -0.308678,0 -0.534679,0.680756 -0.677995,2.042252 l 0.173633,0.173633 2.38125,-0.686263 c 0,4.045904 -0.339,7.796954 -1.016992,11.25306 l 0.165365,0.173633 3.580143,-0.512631 -0.338998,-2.215885 0.686263,-7.846549 c 0,-0.677993 0.454757,-1.016993 1.364258,-1.016993 0.411514,0 0.735887,-0.07771 0.981336,-0.225826 l 0.349849,1.267623 c -0.165364,4.282927 -0.451997,7.758366 -0.859896,10.426237 l 0.124024,0.124024 2.579687,-1.107943 v -1.347721 c 0,-1.984368 0.735879,-3.905368 2.207617,-5.762956 h 0.239779 l 0.124024,0.115755 c 0,1.593006 -0.203952,4.211299 -0.611849,7.854818 v 0.124023 l 0.124023,0.124024 2.94349,-0.859896 -0.487826,-2.083594 0.611849,-6.870898 -0.248047,-0.248047 H 71.87003 l -1.347722,0.124023 c -0.898476,0 -1.96233,0.981171 -3.191536,2.94349 l 0.611849,-6.011003 v -0.124023 z m 65.261132,0.05788 -3.11712,0.37207 h -0.12403 l 0.4961,1.620573 v 1.372526 c -0.86541,0 -1.69499,0.165366 -2.48874,0.496094 -1.07486,0 -2.02847,1.65917 -2.86081,4.977474 0.16536,1.670175 0.37207,2.915932 0.62012,3.737239 0,0.413411 0.70556,0.620118 2.11667,0.620118 h 0.37207 c 1.32842,-1.47174 1.99264,-2.590715 1.99264,-3.356901 h 0.12402 v 0.124023 l -0.24804,3.108854 v 0.124024 l 2.61276,-0.992188 c -0.24805,-1.03628 -0.37207,-1.909964 -0.37207,-2.621028 0,-2.601727 0.33349,-5.754702 1.00045,-9.458855 z m 4.3987,0 -2.84427,0.37207 h -0.48783 l -0.12402,0.124024 c 0.4079,0.903989 0.61185,1.518599 0.61185,1.843815 v 0.620117 c 0,2.596213 -0.24531,5.92558 -0.73587,9.988021 v 0.124023 l 0.12402,0.124024 2.71198,-0.735873 -0.24805,-2.4722 c 0.24805,-3.649032 0.57878,-6.937056 0.99219,-9.863998 z m 25.30905,0 -3.11712,0.37207 h -0.12403 l 0.4961,1.620573 v 1.372526 c -0.86541,0 -1.695,0.165366 -2.48874,0.496094 -1.07487,0 -2.02848,1.65917 -2.86081,4.977474 0.16536,1.670175 0.37207,2.915932 0.62012,3.737239 0,0.413411 0.70556,0.620118 2.11667,0.620118 h 0.37207 c 1.32841,-1.47174 1.99264,-2.590715 1.99264,-3.356901 h 0.12402 v 0.124023 l -0.24804,3.108854 v 0.124024 l 2.61276,-0.992188 c -0.24804,-1.03628 -0.37207,-1.909964 -0.37207,-2.621028 0,-2.601727 0.33349,-5.754702 1.00045,-9.458855 z m -70.031903,0.06615 -3.414779,0.173633 h -0.165364 l -0.512631,0.338997 v 0.165365 l 0.165365,0.173632 v 0.851628 c -0.755162,3.042696 -2.061551,6.738625 -3.919141,11.087695 v 0.165365 l 0.173633,0.173633 1.190625,-0.173633 c 1.025257,0 1.537891,-0.909513 1.537891,-2.728516 0,-1.361496 0.851633,-2.042252 2.554883,-2.042252 0.451993,0 0.677994,0.738635 0.677994,2.215885 v 2.728516 l 3.241146,-0.677995 C 93.273725,45.318868 92.763847,41.452069 92.763847,39.23068 v -0.173632 l 0.165364,-0.165365 z m -2.728516,2.215885 c 0.303168,0 0.529168,1.364268 0.677995,4.092774 v 0.51263 l -0.338997,0.338997 h -1.703256 c 0.04961,-1.091402 0.504366,-2.739548 1.364258,-4.944401 z m 30.518039,0.93431 -2.83601,0.496094 c 0.57326,0.876428 0.94258,1.819014 1.10795,2.827734 l -0.12403,0.37207 c 0,1.813492 -0.1626,3.825443 -0.48782,6.035808 v 0.124023 l 0.12402,0.124024 c 1.71978,-0.589799 2.57969,-0.959115 2.57969,-1.107943 v -1.604037 c 0,-2.039487 0.45199,-3.682122 1.35599,-4.927864 l 1.10794,0.248047 c 0.11575,0 0.40514,-0.779977 0.86816,-2.339909 h -0.12402 l -0.12402,-0.124024 h -1.35599 c -0.66697,0 -1.243,0.986683 -1.72806,2.960027 h -0.11576 V 42.26512 Z m 28.7817,0.06615 -3.18327,0.487825 v 0.248047 c 0.57327,0.760676 0.8599,1.289846 0.8599,1.5875 0,1.714274 -0.24529,4.203029 -0.73587,7.466211 l 0.12402,0.124024 2.4474,-0.859896 c 0,-3.544301 0.8158,-5.991715 2.44739,-7.342188 h 0.12402 c 0,1.201645 -0.28663,3.853012 -0.85989,7.954037 v 0.124023 l 0.12402,0.124024 3.29903,-0.859896 c -0.29766,-0.407898 -0.5402,-0.97841 -0.72761,-1.711524 l 0.72761,-6.978385 c 0,-0.242534 -0.0799,-0.363802 -0.23978,-0.363802 h -0.98392 c -1.32292,0 -2.50528,0.937073 -3.54707,2.811198 l 0.24804,-2.563151 v -0.124024 z m 18.51257,0 c -1.87413,0 -3.175,0.851633 -3.90261,2.554883 v 0.446484 c 0,0.74965 0.65045,2.3537 1.9513,4.812109 0,0.198437 -0.2508,0.297657 -0.75241,0.297657 l -1.49654,-0.148828 -0.45476,1.802474 0.14883,0.148828 h 0.14883 c 3.10884,-0.534678 4.66328,-1.386311 4.66328,-2.554883 V 48.80529 c -1.20165,-2.822211 -1.80247,-4.67431 -1.80247,-5.55625 v -0.305925 l 0.14882,-0.148828 c 0.62288,0 1.1741,0.250804 1.65365,0.752409 0.24253,0 0.49058,-0.600829 0.74414,-1.802474 h -0.14883 l -0.14883,-0.148828 z m -23.34948,0.05788 -3.12539,0.363803 c -1.2678,0 -2.02848,0.760682 -2.28204,2.282031 l 0.12403,0.355534 1.67845,-0.115756 c 0.61736,-1.163058 1.05834,-1.80523 1.32292,-1.926497 h 0.47955 l 0.12403,0.967383 -0.12403,1.562695 c -0.56224,0 -1.5627,0.319707 -3.00136,0.959115 -0.88194,0 -1.32292,1.08039 -1.32292,3.241146 v 1.44694 c 0,0.347266 0.64217,0.545706 1.9265,0.595312 h 0.59531 c 1.12447,-1.052817 1.68672,-1.932013 1.68672,-2.637565 h 0.11575 v 2.637565 l 0.12403,0.124024 2.40605,-0.959115 c -0.24253,-0.85438 -0.3638,-1.576478 -0.3638,-2.166276 v -0.115755 l 0.47956,-6.135026 c -0.12678,-0.319704 -0.4079,-0.479558 -0.84336,-0.479558 z m -66.476566,0.05788 c -0.77721,0 -1.706016,0.121268 -2.786393,0.363802 -0.865405,0 -1.590259,1.774927 -2.174544,5.32474 0.187412,2.739529 0.468534,4.10931 0.843359,4.10931 h 1.091406 c 0.986672,0 1.874136,-0.201195 2.66237,-0.603581 0.782722,0 1.386308,-1.13 1.810742,-3.389974 v -0.115755 h -1.934765 c -0.633896,2.09461 -1.036286,3.141927 -1.207162,3.141927 H 75.838782 L 75.599003,47.151659 V 47.035904 L 77.657792,46.3083 c 1.129987,0 1.694987,-0.443733 1.694987,-1.331185 v -2.538347 c 0,-0.402384 -0.121268,-0.644921 -0.363802,-0.727604 z m 36.859766,0.05788 c -0.66697,0 -1.38631,0.118512 -2.15801,0.355534 -1.20716,0 -2.13046,1.763903 -2.76985,5.291666 v 0.124024 l 0.3638,2.769856 c 0,0.61736 0.84061,1.016993 2.52181,1.198894 l 0.47955,-0.124024 c 1.64262,0 2.80569,-1.521366 3.4892,-4.564062 V 45.01019 c 0,-2.160756 -0.2012,-3.241146 -0.60358,-3.241146 z m -14.3123,0.0083 c -1.019754,0 -1.819018,0.121268 -2.397791,0.363802 -1.372521,0 -2.3344,1.63988 -2.885612,4.919596 0.352776,2.965527 0.75241,4.448308 1.198893,4.448308 h 0.239779 c 0.909501,0 1.91272,-0.159853 3.009635,-0.479558 0.975646,0 1.615056,-1.322926 1.918226,-3.96875 l -0.11575,-0.115755 -1.686721,0.115755 c -0.578774,2.061538 -1.01975,3.183269 -1.322916,3.36517 h -0.479558 l -0.239778,-3.480925 c 0.352776,-2.243437 0.793752,-3.646291 1.322916,-4.208528 h 0.479558 l 0.124023,1.322916 v 0.124024 l -0.124023,0.115755 0.239778,0.719336 h 0.124024 l 0.115757,-0.115755 c 1.12448,0 1.68672,-0.440976 1.68672,-1.322917 v -1.438672 l -0.36381,-0.363802 z m 7.39179,0 c -1.01974,0 -1.81901,0.121268 -2.39778,0.363802 -1.37253,0 -2.3344,1.63988 -2.88562,4.919596 0.35278,2.965527 0.75242,4.448308 1.1989,4.448308 h 0.23978 c 0.90949,0 1.91272,-0.159853 3.00963,-0.479558 0.97565,0 1.61506,-1.322926 1.91823,-3.96875 l -0.11576,-0.115755 -1.68671,0.115755 c -0.57878,2.061538 -1.01975,3.183269 -1.32292,3.36517 h -0.47956 l -0.23978,-3.480925 c 0.35278,-2.243437 0.79375,-3.646291 1.32292,-4.208528 h 0.47956 l 0.12402,1.322916 v 0.124024 l -0.12402,0.115755 0.23978,0.719336 h 0.12402 l 0.11575,-0.115755 c 1.12448,0 1.68672,-0.440976 1.68672,-1.322917 v -1.438672 l -0.3638,-0.363802 z m -31.394464,0.777213 h 0.487825 l 0.115756,0.851628 v 1.934766 c 0,0.198436 -0.443732,0.399633 -1.331185,0.60358 h -0.115755 z m 52.288284,0.239779 c 0.58428,0 1.03905,0.08268 1.36425,0.248047 l -0.24804,1.372526 c 0,1.951294 -0.66422,3.899855 -1.99265,5.845638 -0.28111,0 -0.44649,-0.912268 -0.49609,-2.736784 0,-1.229205 0.45751,-2.805693 1.37253,-4.729427 z m 29.70774,0 c 0.58429,0 1.03904,0.08268 1.36426,0.248047 l -0.24804,1.372526 c 0,1.951294 -0.66422,3.899855 -1.99265,5.845638 -0.28112,0 -0.44649,-0.912268 -0.49609,-2.736784 0,-1.229205 0.45752,-2.805693 1.37252,-4.729427 z m -44.75592,0.05788 h 0.11576 c 0.24253,0 0.40238,1.201658 0.47955,3.604948 0,0.551212 -0.39963,1.87414 -1.19889,3.96875 h -0.60358 l -0.23978,-3.125391 c 0.46302,-2.232413 0.94533,-3.715194 1.44694,-4.448307 z m 28.64941,3.489192 c 0,0.93155 -0.60082,2.213137 -1.80247,3.844727 l -0.11576,-0.719336 0.23978,-2.166276 c 0,-0.639406 0.5595,-0.959115 1.67845,-0.959115 z"
       style="fill:#ffffff"	/>
  </g>
</svg>
